#!OML:ASF X:\für Bonn\!DataBase\2005_08_10_Bjorn_Final\c3d\bjorn.ASF
:FULLY-SPECIFIED
:DEGREES
78
root 2.59305 18.6687 6.16132 -191.824 -0.226126 178.058
lowerback -10.9012 -0.0515149 0.940726
upperback 8.32124 -0.359373 -2.41678
thorax 15.457 -0.0672013 -3.39179
lowerneck -0.759259 1.06749 6.2474
upperneck 21.7943 3.52479 -2.72431
head 6.90556 2.73464 -1.62971
rclavicle 4.09993e-015 6.36111e-015
rhumerus -305.846 14.9707 279.227
rradius 54.0403
rwrist 23.4449
rhand -45.4605 27.7828
rfingers 7.12502
rthumb -18.2268 -1.38322
lclavicle 4.09993e-015 6.36111e-015
lhumerus 44.1225 -19.9708 89.2205
lradius 60.2274
lwrist 39.8346
lhand -36.5939 -5.05631
lfingers 7.12502
lthumb -9.6828 24.7011
rfemur 3.20698 -3.83538 15.5876
rtibia 34.4102
rfoot -24.6911 10.6137
rtoes -4.86913
lfemur -10.0732 -6.71421 -15.6762
ltibia 45.3268
lfoot -13.7145 4.40593
ltoes -22.0971
79
root 2.60278 18.6571 6.0978 -191.911 -0.165039 178.092
lowerback -10.9445 -0.597863 1.02602
upperback 8.25023 -0.217767 -2.53037
thorax 15.4023 0.380536 -3.4324
lowerneck -0.691593 1.13867 6.23034
upperneck 22.0401 3.61805 -2.352
head 6.97358 2.83011 -1.49749
rclavicle -9.05713e-015 -2.34566e-014
rhumerus -305.592 14.8864 279.282
rradius 55.4543
rwrist 23.3948
rhand -45.8576 28.3805
rfingers 7.12502
rthumb -18.6087 -0.749469
lclavicle -9.05713e-015 -2.34566e-014
lhumerus 44.6031 -20.1043 89.1829
lradius 61.7637
lwrist 39.1707
lhand -37.1218 -5.43895
lfingers 7.12502
lthumb -10.1922 24.2942
rfemur 3.55131 -3.79352 15.6563
rtibia 34.363
rfoot -24.9328 10.5674
rtoes -4.84162
lfemur -10.3233 -6.67315 -15.6657
ltibia 45.0064
lfoot -13.8195 4.14553
ltoes -22.3541
80
root 2.61171 18.6447 6.03348 -191.987 -0.0887548 178.108
lowerback -11.0042 -0.587794 0.982873
upperback 8.19682 -0.19792 -2.56897
thorax 15.3774 0.38435 -3.44743
lowerneck -0.575254 1.19671 6.20821
upperneck 22.2404 3.70494 -2.04134
head 7.01833 2.91684 -1.38566
rclavicle -4.73356e-015 0
rhumerus -305.427 14.8155 279.303
rradius 56.9128
rwrist 23.2727
rhand -46.3734 29.6016
rfingers 7.12502
rthumb -19.1048 0.519926
lclavicle -4.73356e-015 0
lhumerus 45.0021 -20.2575 89.1818
lradius 63.3445
lwrist 38.4409
lhand -37.5534 -6.02842
lfingers 7.12502
lthumb -10.6085 23.6838
rfemur 3.88503 -3.70319 15.7148
rtibia 34.3179
rfoot -25.1869 10.5119
rtoes -4.61271
lfemur -10.5781 -6.63061 -15.6665
ltibia 44.6875
lfoot -13.8825 3.95133
ltoes -22.6039
81
root 2.61964 18.6317 5.96864 -192.071 -0.00672532 178.153
lowerback -11.051 -0.579279 0.982848
upperback 8.14434 -0.188273 -2.60621
thorax 15.3446 0.387806 -3.48751
lowerneck -0.50215 1.2507 6.24934
upperneck 22.494 3.79765 -1.7948
head 7.09032 3.00908 -1.30337
rclavicle 9.05713e-015 3.33958e-014
rhumerus -305.353 14.7775 279.295
rradius 58.3655
rwrist 23.3917
rhand -47.0735 30.6742
rfingers 7.12502
rthumb -19.7779 1.6604
lclavicle 9.05713e-015 3.33958e-014
lhumerus 45.3535 -20.4248 89.1405
lradius 64.9752
lwrist 37.6546
lhand -37.9048 -6.82842
lfingers 7.12502
lthumb -10.9474 22.8662
rfemur 4.23216 -3.62048 15.8015
rtibia 34.2733
rfoot -25.4286 10.4716
rtoes -4.52453
lfemur -10.8225 -6.62534 -15.6383
ltibia 44.3726
lfoot -13.9485 3.80249
ltoes -22.9495
82
root 2.62752 18.6182 5.90239 -192.163 0.0989933 178.184
lowerback -11.1142 -0.56967 0.962852
upperback 8.10748 -0.172449 -2.6371
thorax 15.3418 0.392931 -3.50827
lowerneck -0.454638 1.29046 6.3024
upperneck 22.7567 3.88116 -1.62401
head 7.17067 3.09166 -1.24757
rclavicle 4.50527e-015 -1.98785e-015
rhumerus -305.301 14.7443 279.265
rradius 59.9083
rwrist 23.5171
rhand -47.6536 31.8817
rfingers 7.12502
rthumb -20.3356 2.92632
lclavicle 4.50527e-015 -1.98785e-015
lhumerus 45.6898 -20.5855 89.0978
lradius 66.5768
lwrist 36.6733
lhand -38.2447 -7.52955
lfingers 7.12502
lthumb -11.2753 22.1474
rfemur 4.58493 -3.53632 15.8691
rtibia 34.2303
rfoot -25.6834 10.4085
rtoes -4.58866
lfemur -11.0545 -6.58443 -15.6112
ltibia 44.065
lfoot -13.9575 3.60687
ltoes -23.2594
83
root 2.63435 18.6041 5.83499 -192.245 0.215157 178.212
lowerback -11.2112 -0.5636 0.941393
upperback 8.08984 -0.160498 -2.65961
thorax 15.3837 0.397149 -3.52089
lowerneck -0.428526 1.32714 6.37778
upperneck 22.9891 3.95957 -1.512
head 7.24612 3.16538 -1.21497
rclavicle -1.55145e-015 2.22639e-014
rhumerus -305.215 14.7529 279.295
rradius 61.4107
rwrist 23.7443
rhand -48.2336 32.6644
rfingers 7.12502
rthumb -20.8928 3.76947
lclavicle -1.55145e-015 2.22639e-014
lhumerus 46.0465 -20.7821 89.0046
lradius 68.088
lwrist 35.6471
lhand -38.4614 -8.25258
lfingers 7.12502
lthumb -11.4843 21.4128
rfemur 4.92841 -3.48367 15.9181
rtibia 34.1834
rfoot -25.9261 10.3963
rtoes -4.70018
lfemur -11.2944 -6.59229 -15.5859
ltibia 43.7684
lfoot -13.9767 3.43218
ltoes -23.3116
84
root 2.64038 18.5897 5.76726 -192.332 0.346527 178.237
lowerback -11.2878 -0.556762 0.925454
upperback 8.05785 -0.149754 -2.68492
thorax 15.3951 0.400276 -3.53931
lowerneck -0.381728 1.35401 6.5145
upperneck 23.2405 4.04779 -1.49847
head 7.32766 3.24388 -1.22396
rclavicle 5.89365e-016 2.06736e-014
rhumerus -305.185 14.8249 279.355
rradius 62.8521
rwrist 23.9059
rhand -48.721 33.0536
rfingers 7.12502
rthumb -21.3611 4.21104
lclavicle 5.89365e-016 2.06736e-014
lhumerus 46.3287 -20.986 88.8994
lradius 69.5493
lwrist 34.5034
lhand -38.3931 -8.92681
lfingers 7.12502
lthumb -11.4184 20.7423
rfemur 5.28088 -3.39828 15.9683
rtibia 34.1392
rfoot -26.183 10.346
rtoes -4.9373
lfemur -11.5376 -6.57687 -15.5612
ltibia 43.485
lfoot -13.9527 3.30782
ltoes -23.7435
85
root 2.64618 18.5754 5.69738 -192.428 0.505141 178.248
lowerback -11.3753 -0.551295 0.887938
upperback 8.03803 -0.139178 -2.68892
thorax 15.428 0.400104 -3.52196
lowerneck -0.335403 1.38449 6.58692
upperneck 23.4439 4.13328 -1.47786
head 7.39202 3.31196 -1.22076
rclavicle 1.19861e-014 1.19271e-015
rhumerus -305.127 14.9374 279.45
rradius 64.2799
rwrist 24.0933
rhand -49.1677 33.4341
rfingers 7.12502
rthumb -21.79 4.64069
lclavicle 1.19861e-014 1.19271e-015
lhumerus 46.6417 -21.1894 88.7503
lradius 70.973
lwrist 33.3591
lhand -38.2892 -9.49061
lfingers 7.12502
lthumb -11.3182 20.184
rfemur 5.64526 -3.29529 16.0037
rtibia 34.0888
rfoot -26.4361 10.3097
rtoes -5.15751
lfemur -11.762 -6.54426 -15.5473
ltibia 43.2192
lfoot -13.9142 3.22106
ltoes -24.2192
86
root 2.65177 18.5606 5.62847 -192.553 0.626869 178.253
lowerback -11.4324 -0.570344 0.807755
upperback 8.04225 -0.153708 -2.67362
thorax 15.4685 0.38382 -3.46433
lowerneck -0.309891 1.41473 6.62874
upperneck 23.6298 4.2174 -1.48316
head 7.45405 3.37177 -1.22098
rclavicle 2.77677e-015 6.75868e-015
rhumerus -305.057 15.0714 279.569
rradius 65.7285
rwrist 24.2955
rhand -49.5637 33.7001
rfingers 7.12502
rthumb -22.1702 4.95143
lclavicle 2.77677e-015 6.75868e-015
lhumerus 46.9725 -21.3746 88.5828
lradius 72.4142
lwrist 32.1691
lhand -38.5436 -9.62492
lfingers 7.12502
lthumb -11.5636 20.0361
rfemur 6.04387 -3.20549 16.0321
rtibia 34.0382
rfoot -26.6892 10.2594
rtoes -5.32375
lfemur -11.9678 -6.58035 -15.5432
ltibia 42.9687
lfoot -13.8507 3.10886
ltoes -24.4396
87
root 2.65718 18.545 5.55766 -192.679 0.786442 178.22
lowerback -11.4848 -0.590303 0.689775
upperback 8.03073 -0.165041 -2.65454
thorax 15.4872 0.363272 -3.37979
lowerneck -0.212607 1.45479 6.67566
upperneck 23.7666 4.32648 -1.52824
head 7.48917 3.43986 -1.23533
rclavicle 2.36057e-015 6.75868e-015
rhumerus -305.006 15.2445 279.702
rradius 67.1601
rwrist 24.4842
rhand -49.9691 33.9376
rfingers 7.12502
rthumb -22.5594 5.23562
lclavicle 2.36057e-015 6.75868e-015
lhumerus 47.2479 -21.5529 88.4141
lradius 73.8357
lwrist 31.0053
lhand -38.7604 -9.9825
lfingers 7.12502
lthumb -11.7727 19.6666
rfemur 6.44865 -3.08946 16.0155
rtibia 33.9869
rfoot -26.9371 10.2276
rtoes -5.62091
lfemur -12.1641 -6.59097 -15.567
ltibia 42.7363
lfoot -13.8056 3.00003
ltoes -24.5052
88
root 2.66215 18.5279 5.4873 -192.843 0.915909 178.179
lowerback -11.5043 -0.619772 0.559231
upperback 8.05613 -0.177401 -2.65473
thorax 15.53 0.345795 -3.30999
lowerneck -0.150856 1.49239 6.79292
upperneck 23.8532 4.41469 -1.59989
head 7.51538 3.49549 -1.27201
rclavicle 7.01337e-015 -1.55052e-014
rhumerus -304.919 15.3819 279.852
rradius 68.5988
rwrist 24.603
rhand -50.2742 34.146
rfingers 7.12502
rthumb -22.8523 5.47991
lclavicle 7.01337e-015 -1.55052e-014
lhumerus 47.5658 -21.7875 88.1623
lradius 75.1824
lwrist 30.028
lhand -38.7743 -10.8329
lfingers 7.12502
lthumb -11.786 18.8155
rfemur 6.89605 -2.99041 15.9844
rtibia 33.9323
rfoot -27.201 10.1848
rtoes -5.84797
lfemur -12.3291 -6.65686 -15.6074
ltibia 42.5206
lfoot -13.7149 2.91972
ltoes -24.6113
89
root 2.66692 18.5101 5.41542 -193.014 1.05597 178.107
lowerback -11.5253 -0.632156 0.40363
upperback 8.08651 -0.157129 -2.67148
thorax 15.5825 0.342931 -3.23678
lowerneck -0.101601 1.52241 6.94385
upperneck 23.9184 4.48198 -1.66362
head 7.53664 3.54257 -1.31332
rclavicle 7.4917e-015 3.97569e-015
rhumerus -304.851 15.4731 280.007
rradius 70.027
rwrist 24.7476
rhand -50.61 34.5104
rfingers 7.12502
rthumb -23.1744 5.88449
lclavicle 7.4917e-015 3.97569e-015
lhumerus 47.889 -22.0811 87.8759
lradius 76.5298
lwrist 29.1406
lhand -38.8019 -11.7261
lfingers 7.12502
lthumb -11.8127 17.9207
rfemur 7.36184 -2.87686 15.9172
rtibia 33.871
rfoot -27.4615 10.1648
rtoes -6.04293
lfemur -12.4914 -6.72822 -15.6776
ltibia 42.3311
lfoot -13.6242 2.83349
ltoes -24.7007
